<?xml version="1.0" standalone="no"?>
<!DOCTYPE svg PUBLIC "-//W3C//DTD SVG 20010904//EN"
 "http://www.w3.org/TR/2001/REC-SVG-20010904/DTD/svg10.dtd">
<svg version="1.0" xmlns="http://www.w3.org/2000/svg"
 width="831.000000pt" height="231.000000pt" viewBox="0 0 831.000000 231.000000"
 preserveAspectRatio="xMidYMid meet">

<g transform="translate(0.000000,231.000000) scale(0.100000,-0.100000)"
fill="#000000" stroke="none">
<path d="M1895 1973 c-22 -2 -60 -6 -84 -9 -42 -5 -43 -6 -22 -21 15 -10 19
-19 13 -26 -15 -18 -27 -977 -12 -977 6 0 8 -6 4 -12 -4 -7 7 0 24 16 31 29
32 32 33 120 1 50 5 134 9 186 8 91 8 89 6 -48 -1 -142 -1 -143 22 -149 12 -3
26 -3 29 1 3 3 8 90 10 193 l4 188 75 73 c41 39 79 72 84 72 9 0 70 -73 70
-84 0 -3 -11 -6 -25 -6 -14 0 -25 -3 -25 -7 0 -5 -1 -132 -2 -283 -1 -275 -1
-275 20 -278 12 -2 22 -8 22 -13 0 -12 -7 -11 -31 1 -12 7 -19 7 -19 1 0 -6 9
-15 20 -21 16 -9 22 -6 37 17 15 23 19 58 23 233 l6 205 2 -182 2 -183 24 0
c23 0 25 3 28 78 8 151 8 457 1 467 -5 6 -41 34 -82 62 -72 51 -73 52 -105 36
-18 -8 -50 -39 -71 -69 -22 -30 -43 -54 -47 -54 -4 0 -8 93 -8 208 0 164 3
213 15 236 18 34 18 36 3 34 -7 -1 -31 -3 -53 -5z m295 -453 c10 -6 12 -12 5
-19 -7 -7 -14 -4 -23 9 -13 21 -6 25 18 10z m-280 -34 c0 -3 -4 -8 -10 -11 -5
-3 -10 -1 -10 4 0 6 5 11 10 11 6 0 10 -2 10 -4z"/>
<path d="M3185 1973 c-27 -2 -65 -6 -83 -9 -28 -4 -31 -8 -22 -20 10 -11 11
-131 5 -509 -6 -379 -5 -495 4 -495 7 0 9 -6 5 -12 -4 -7 7 0 24 16 31 29 32
32 33 120 1 50 5 134 9 186 8 90 8 87 6 -48 -2 -142 -2 -143 21 -148 13 -4 26
-5 28 -3 2 2 7 91 11 196 l7 193 52 47 c29 27 65 59 81 72 l28 23 28 -33 c15
-18 28 -37 28 -41 0 -14 -19 -8 -37 12 -18 19 -18 17 -11 -53 4 -40 7 -178 7
-307 l-1 -235 31 -3 c17 -2 32 -2 33 0 1 2 4 95 8 208 l6 205 2 -177 2 -178
24 0 c24 0 25 2 28 98 8 202 8 437 1 448 -5 6 -41 34 -81 62 -73 51 -74 51
-106 36 -18 -9 -50 -40 -71 -70 -22 -30 -43 -54 -47 -54 -4 0 -8 93 -8 208 0
164 3 213 15 236 18 34 18 36 3 34 -7 -1 -35 -3 -63 -5z m25 -487 c0 -3 -4 -8
-10 -11 -5 -3 -10 -1 -10 4 0 6 5 11 10 11 6 0 10 -2 10 -4z"/>
<path d="M7635 1973 c-107 -9 -127 -14 -114 -29 9 -12 11 -125 5 -508 -6 -425
-5 -494 8 -499 8 -3 22 3 31 13 13 15 20 58 30 207 l14 188 -2 -143 c-2 -142
-2 -143 21 -149 12 -3 24 -4 26 -2 2 2 6 90 10 194 l7 190 77 72 c42 40 80 73
84 73 4 0 24 -21 45 -47 36 -43 38 -52 45 -132 3 -47 7 -161 7 -253 l1 -168
25 0 c25 0 25 2 25 78 0 42 3 161 7 264 5 149 3 191 -7 203 -19 23 -148 105
-165 105 -21 0 -78 -54 -100 -94 -38 -70 -43 -49 -44 172 -1 167 2 213 14 236
18 34 18 36 3 34 -7 -1 -31 -3 -53 -5z m296 -443 c21 -12 26 -40 8 -40 -12 0
-38 29 -39 43 0 10 8 9 31 -3z m-276 -36 c13 -5 14 -8 3 -15 -19 -13 -28 -11
-28 6 0 17 2 18 25 9z m-58 -46 c-3 -8 -6 -5 -6 6 -1 11 2 17 5 13 3 -3 4 -12
1 -19z"/>
<path d="M5687 1908 c-55 -30 -347 -257 -376 -292 -22 -27 0 -60 183 -270 208
-240 296 -354 296 -383 0 -16 6 -23 19 -23 11 0 26 -2 33 -5 9 -4 19 4 26 20
16 34 15 35 -8 35 -14 0 -20 7 -20 23 0 12 -9 42 -20 66 -11 24 -18 46 -16 49
7 6 -136 169 -178 204 -18 14 -50 48 -71 75 -54 66 133 -121 228 -230 43 -48
92 -109 109 -135 19 -30 28 -38 25 -23 l-6 23 24 -22 c16 -15 24 -18 27 -9 2
7 9 9 17 5 10 -7 10 -10 1 -16 -7 -5 2 -9 24 -12 20 -2 36 -1 36 3 0 23 -100
153 -206 268 -147 159 -291 332 -294 351 -6 38 2 62 31 95 17 19 39 35 48 35
27 0 101 -53 182 -130 80 -75 86 -94 47 -137 l-20 -21 34 8 c18 5 53 14 78 20
25 7 55 23 68 37 26 29 24 60 -11 128 -25 50 -225 295 -241 295 -6 0 -37 -15
-69 -32z m36 -105 c-7 -2 -21 -2 -30 0 -10 3 -4 5 12 5 17 0 24 -2 18 -5z
m165 -108 c-3 -3 -9 2 -12 12 -6 14 -5 15 5 6 7 -7 10 -15 7 -18z m37 -105
c17 -37 17 -41 1 -66 -10 -14 -20 -23 -24 -20 -3 4 -1 11 5 17 15 15 -1 85
-27 122 l-23 32 25 -23 c14 -13 33 -41 43 -62z m55 -13 c0 -5 -4 -5 -10 -2 -5
3 -10 14 -10 23 0 15 2 15 10 2 5 -8 10 -19 10 -23z m-175 -367 c53 -58 101
-114 107 -125 19 -38 -233 232 -256 275 -12 21 35 -26 149 -150z"/>
<path d="M4095 1888 c29 -16 29 -16 18 -30 -7 -8 -13 -207 -18 -535 l-7 -521
22 -12 c48 -26 49 -20 49 266 0 147 3 269 6 272 3 3 5 -37 5 -90 0 -89 1 -95
23 -105 22 -10 22 -10 24 91 6 278 25 642 33 650 21 21 6 26 -82 26 -74 -1
-89 -3 -73 -12z"/>
<path d="M1370 1873 c-19 -2 -55 -6 -80 -9 l-45 -6 28 -15 c25 -12 27 -16 14
-26 -22 -17 -38 -964 -16 -977 8 -5 19 -4 26 2 25 20 26 -1 2 -23 -13 -11 -19
-18 -12 -15 6 4 14 2 18 -3 3 -6 13 -7 21 -4 11 4 14 13 9 32 -8 28 -7 492 1
500 2 2 4 -80 4 -182 0 -118 4 -187 10 -187 6 0 10 5 10 10 0 6 6 10 14 10 8
0 16 15 20 38 9 61 -1 292 -15 308 -9 11 -9 14 1 14 19 0 112 98 105 110 -14
22 37 8 67 -19 31 -27 31 -29 12 -39 -19 -10 -20 -19 -17 -219 2 -125 7 -209
13 -211 6 -2 8 -8 4 -13 -3 -5 -1 -9 5 -9 11 0 21 26 26 70 2 16 9 39 16 51 8
15 10 62 6 148 l-5 126 11 -129 12 -130 28 -7 28 -8 -6 87 c-18 288 -13 273
-107 328 -44 26 -83 43 -86 38 -4 -5 -25 -36 -47 -69 l-40 -60 -6 210 c-4 160
-2 218 8 244 15 39 16 42 6 39 -5 0 -24 -3 -43 -5z m0 -493 c0 -5 -4 -10 -10
-10 -5 0 -10 5 -10 10 0 6 5 10 10 10 6 0 10 -4 10 -10z"/>
<path d="M688 1703 c3 -47 -6 -87 -42 -205 -25 -80 -46 -149 -46 -152 0 -3 9
-6 19 -6 29 0 32 -13 15 -64 -9 -26 -14 -50 -11 -53 4 -3 14 22 23 57 17 60
19 62 46 56 25 -5 30 -1 48 36 11 23 20 49 20 59 0 9 8 27 18 40 11 13 22 37
26 53 6 25 9 27 22 15 8 -8 19 -30 24 -48 9 -33 9 -33 -11 -15 -17 16 -21 16
-34 3 -14 -13 -11 -31 24 -155 34 -118 87 -282 96 -292 1 -1 16 -7 34 -12 30
-8 31 -8 31 22 0 22 -4 29 -14 25 -19 -7 -27 19 -31 92 -5 90 -4 88 -14 73 -5
-9 -8 -4 -8 15 1 15 -2 44 -6 63 -3 19 13 -26 37 -100 24 -74 47 -153 51 -175
4 -22 10 -34 12 -27 8 21 25 13 18 -8 -5 -17 -2 -20 22 -21 23 -2 24 -2 6 -6
-28 -5 -28 -15 -2 -89 11 -32 23 -70 25 -84 10 -53 15 -62 29 -50 9 8 15 4 24
-18 10 -23 51 -62 51 -47 0 2 -21 66 -46 142 -45 133 -73 181 -97 166 -7 -4
-2 5 9 20 l21 27 -37 117 c-20 65 -65 207 -100 315 -60 190 -66 223 -45 271 7
16 -2 17 -101 17 l-109 0 3 -57z m78 -149 c-11 -7 -22 -11 -25 -8 -3 3 3 12
13 20 11 7 22 11 25 8 3 -3 -3 -12 -13 -20z"/>
<path d="M2369 1727 c-17 -9 -25 -22 -27 -46 -3 -30 -1 -32 18 -26 13 4 33 2
46 -6 26 -14 30 -41 14 -85 -6 -15 -9 -29 -6 -31 6 -7 79 26 88 40 9 14 11
118 3 139 -4 9 -17 13 -39 10 -19 -2 -42 1 -53 6 -14 8 -26 7 -44 -1z"/>
<path d="M6160 1727 c-44 -22 -50 -121 -6 -115 15 2 20 9 19 26 -3 25 4 27 31
7 19 -14 19 -51 1 -97 -10 -25 15 -23 56 5 33 22 34 24 34 92 l0 70 -45 5
c-25 3 -50 9 -56 12 -5 4 -21 1 -34 -5z"/>
<path d="M6981 1503 l-84 -128 12 -135 c23 -260 15 -236 86 -275 66 -37 95
-44 95 -22 0 14 -31 47 -43 47 -3 0 -17 11 -31 24 -23 24 -24 30 -25 178 -2
164 4 197 11 58 3 -68 7 -86 20 -88 13 -2 15 2 11 19 -5 19 -3 21 13 16 18 -7
18 -6 2 7 -21 16 -24 28 -5 20 10 -3 15 33 25 156 6 88 16 169 22 179 10 19
11 19 53 -4 24 -15 58 -25 81 -25 25 0 43 -6 51 -17 12 -15 9 -19 -18 -28
l-32 -10 2 -179 c3 -189 4 -196 51 -196 22 0 22 3 24 123 l2 122 6 -119 c5
-111 6 -119 26 -122 20 -3 21 2 28 88 3 50 6 148 6 218 0 142 1 140 -78 180
-43 21 -80 21 -66 -1 3 -6 0 -15 -7 -20 -9 -5 -35 4 -75 26 -34 19 -66 35 -71
35 -5 0 -47 -57 -92 -127z m335 32 c15 -11 16 -14 3 -15 -8 0 -24 7 -35 15
-15 11 -16 14 -3 15 8 0 24 -7 35 -15z m-336 -196 c0 -5 -4 -9 -10 -9 -5 0
-10 7 -10 16 0 8 5 12 10 9 6 -3 10 -10 10 -16z"/>
<path d="M4480 1559 c0 -3 14 -10 32 -15 17 -5 33 -14 35 -19 1 -6 -29 -48
-68 -95 l-71 -85 49 -3 48 -4 92 99 c60 64 88 100 80 105 -17 9 -197 25 -197
17z m100 -69 c0 -5 -2 -10 -4 -10 -3 0 -8 5 -11 10 -3 6 -1 10 4 10 6 0 11 -4
11 -10z"/>
<path d="M3754 1486 c-33 -23 -79 -61 -103 -83 l-45 -39 -4 -119 c-3 -80 -1
-116 6 -111 6 3 13 24 17 45 8 47 31 73 46 50 7 -11 9 -9 9 9 0 13 -4 20 -10
17 -14 -8 -13 28 2 60 12 27 38 34 38 10 0 -8 -4 -15 -10 -15 -5 0 -10 -12
-10 -27 0 -21 3 -24 12 -15 7 7 20 12 30 12 22 0 24 16 3 24 -8 3 -12 12 -9
20 3 8 11 13 18 10 9 -4 15 10 19 43 9 73 26 123 42 123 20 0 113 -110 121
-143 3 -15 9 -25 14 -22 5 3 11 -8 15 -23 4 -22 11 -28 28 -27 26 2 27 12 4
92 -17 60 -20 63 -89 107 -39 25 -75 46 -79 46 -4 0 -33 -20 -65 -44z m176
-76 c0 -5 -2 -10 -4 -10 -3 0 -8 5 -11 10 -3 6 -1 10 4 10 6 0 11 -4 11 -10z"/>
<path d="M6683 1481 c-21 -15 -55 -47 -76 -70 -21 -24 -40 -41 -42 -39 -2 2
-5 31 -6 66 -1 34 -5 62 -8 62 -3 -1 -39 -25 -79 -54 -54 -40 -69 -55 -57 -60
9 -3 23 1 32 10 17 17 44 15 50 -3 2 -6 -6 -13 -19 -15 l-23 -3 0 -265 c0
-146 3 -264 8 -262 4 1 7 5 8 10 0 4 9 16 20 28 18 20 19 31 14 170 -3 82 -2
181 3 219 8 57 10 29 11 -152 1 -146 5 -224 12 -228 7 -5 8 7 4 39 -6 39 -5
46 9 46 14 0 16 19 16 159 0 129 -3 161 -15 171 -21 17 -19 25 6 27 11 1 29
13 40 27 14 17 30 26 49 26 33 0 49 18 29 31 -10 6 -7 9 12 9 14 0 33 -8 42
-18 22 -24 21 -29 -5 -28 l-23 1 3 -250 c2 -137 5 -277 9 -309 l5 -60 23 37
c12 20 25 34 30 29 4 -4 6 108 3 248 -3 140 -2 224 2 185 4 -38 8 -118 9 -177
l1 -108 25 0 25 0 0 197 0 196 -42 63 c-24 35 -48 65 -55 68 -6 3 -29 -8 -50
-23z m-143 -121 c0 -5 -4 -10 -10 -10 -5 0 -10 5 -10 10 0 6 5 10 10 10 6 0
10 -4 10 -10z m250 0 c0 -5 -2 -10 -4 -10 -3 0 -8 5 -11 10 -3 6 -1 10 4 10 6
0 11 -4 11 -10z"/>
<path d="M7849 1215 c-1 -146 -2 -271 -3 -277 -1 -7 11 -14 26 -16 48 -6 51
17 46 278 -5 245 -11 280 -48 280 -19 0 -20 -9 -21 -265z"/>
<path d="M2794 1420 c-33 -21 -72 -50 -87 -62 l-28 -23 36 1 c20 1 41 6 48 13
6 6 26 11 44 11 31 0 33 2 23 20 -9 17 -8 20 7 20 23 0 136 -107 128 -120 -3
-5 -2 -10 4 -10 5 0 17 -3 26 -6 13 -5 15 -2 9 22 -9 40 -113 174 -134 174
-10 0 -44 -18 -76 -40z"/>
<path d="M6158 1432 c-12 -2 -14 -50 -14 -302 0 -291 1 -300 19 -294 13 4 17
2 13 -5 -4 -7 -1 -9 8 -5 17 7 28 141 30 366 0 81 4 139 8 130 4 -9 7 -60 7
-113 1 -95 2 -97 24 -95 16 1 23 7 23 22 0 15 -5 20 -15 17 -14 -5 -13 -4 0 8
13 11 18 39 23 117 8 144 6 149 -59 154 -29 1 -59 2 -67 0z"/>
<path d="M2353 1132 l1 -299 27 0 c26 0 27 2 33 81 15 209 19 399 7 392 -14
-9 -24 15 -19 46 4 21 6 19 21 -14 12 -26 17 -65 17 -132 0 -92 1 -94 23 -92
16 1 23 7 23 22 0 15 -5 20 -15 16 -8 -3 -6 3 6 15 19 19 21 32 20 140 l-2
118 -71 3 -71 3 0 -299z"/>
<path d="M596 1315 c-3 -9 -6 -22 -5 -28 0 -7 5 -1 10 12 5 13 8 26 5 28 -2 2
-6 -3 -10 -12z"/>
<path d="M2898 1313 c-22 -6 -31 -115 -9 -111 8 2 15 12 16 23 3 34 16 66 25
60 4 -3 6 4 3 15 -3 11 -8 19 -12 19 -3 -1 -13 -3 -23 -6z"/>
<path d="M2701 1291 c-7 -12 -6 -22 2 -30 7 -7 12 -21 12 -31 0 -11 3 -19 7
-17 8 3 58 -44 58 -55 0 -5 -6 -6 -12 -2 -9 5 -9 3 1 -9 7 -9 17 -15 21 -12 4
3 31 -22 59 -54 50 -58 63 -79 39 -65 -8 4 -10 3 -5 -2 5 -5 14 -9 20 -9 7 0
11 -9 11 -18 -1 -10 0 -16 3 -14 2 3 21 -1 40 -9 64 -27 55 -4 -38 102 -30 34
-72 83 -94 109 -22 27 -50 59 -62 73 -13 14 -23 31 -23 37 0 21 -29 26 -39 6z"/>
<path d="M3916 1293 c-21 -11 -25 -17 -16 -23 7 -5 20 -6 28 -2 9 3 13 1 9 -5
-4 -6 -37 -10 -79 -8 -40 1 -57 0 -38 -2 19 -2 56 -11 83 -19 26 -9 50 -14 55
-12 4 2 3 22 -3 45 l-10 41 -29 -15z"/>
<path d="M2618 1273 c6 -2 18 -2 25 0 6 3 1 5 -13 5 -14 0 -19 -2 -12 -5z"/>
<path d="M4420 1267 c0 -7 8 -28 18 -48 9 -19 44 -118 77 -221 49 -153 64
-188 83 -197 33 -16 34 -14 19 17 -8 15 -45 119 -82 232 -37 113 -72 211 -78
218 -12 16 -37 16 -37 -1z"/>
<path d="M4375 1241 c3 -5 -3 -12 -12 -14 -17 -4 -17 -5 0 -6 9 0 17 -7 17
-13 0 -9 4 -8 10 2 13 21 12 27 -6 34 -8 3 -12 2 -9 -3z"/>
<path d="M3686 1198 c-7 -55 6 -141 29 -194 16 -35 21 -39 32 -29 20 21 18
228 -3 249 -29 30 -51 20 -58 -26z"/>
<path d="M483 1180 c-32 -13 -29 -22 3 -10 14 6 30 8 35 4 5 -3 9 0 9 5 0 13
-17 13 -47 1z"/>
<path d="M575 1180 c3 -5 -4 -12 -15 -15 -26 -8 -21 -29 8 -33 12 -2 22 -8 22
-14 0 -22 13 2 16 31 3 22 -1 30 -16 34 -11 3 -18 1 -15 -3z"/>
<path d="M625 1180 c-4 -6 11 -18 34 -27 22 -9 38 -20 34 -26 -3 -6 -2 -7 4
-4 5 3 22 -5 39 -18 16 -13 23 -24 16 -25 -10 0 -9 -7 2 -29 17 -32 101 -91
157 -111 35 -13 38 -17 62 -99 14 -47 27 -95 29 -106 2 -11 10 -25 18 -32 12
-9 20 -7 38 9 12 12 22 16 22 10 0 -12 -40 -38 -52 -34 -4 1 -5 -5 -2 -13 5
-11 22 -15 61 -15 30 0 52 4 49 8 -2 4 -23 7 -47 5 l-42 -2 22 23 c20 21 21
27 10 74 -6 29 -15 52 -20 52 -6 0 -8 4 -5 8 7 12 -15 82 -26 82 -4 0 -18 20
-29 44 -21 42 -22 43 -64 39 -44 -6 -83 9 -143 54 -52 39 -31 38 28 -1 29 -19
57 -33 63 -29 5 3 -14 18 -43 34 -29 16 -81 53 -117 84 -64 55 -86 65 -98 45z"/>
<path d="M2680 1188 c0 -3 39 -54 86 -114 48 -60 92 -122 98 -137 6 -16 17
-26 26 -25 17 4 27 38 13 47 -15 9 -44 73 -30 64 7 -4 -3 12 -21 35 -19 23
-36 42 -39 42 -3 0 1 -8 8 -17 13 -16 11 -16 -16 1 -16 10 -39 28 -50 40 -29
31 -75 70 -75 64z"/>
<path d="M4405 1177 c-6 -14 63 -233 91 -293 9 -19 23 -34 30 -34 16 0 19 -16
5 -24 -5 -3 -11 -18 -14 -32 l-5 -26 26 28 26 28 -59 174 c-39 112 -66 177
-77 183 -13 7 -20 6 -23 -4z"/>
<path d="M7010 1140 c0 -5 5 -10 10 -10 6 0 10 5 10 10 0 6 -4 10 -10 10 -5 0
-10 -4 -10 -10z"/>
<path d="M7005 1058 c4 -13 21 -34 38 -48 59 -47 72 -24 19 34 -38 42 -67 49
-57 14z"/>
<path d="M5436 1045 c-3 -8 -1 -15 5 -15 5 0 14 -12 20 -27 15 -39 39 -95 51
-117 17 -32 -8 -44 -35 -17 -12 13 -17 21 -10 17 6 -3 15 -1 19 5 4 7 3 9 -4
5 -17 -10 -68 40 -86 84 -13 32 -21 40 -41 40 -30 0 -33 -28 -9 -86 15 -36
165 -225 212 -268 21 -18 21 -18 27 6 4 14 0 41 -9 62 -8 20 -12 36 -9 36 3 0
0 6 -6 13 -6 8 -8 17 -4 21 4 4 0 4 -8 1 -9 -3 -23 3 -35 16 -10 13 -13 19 -6
15 7 -4 12 -4 11 1 -4 26 7 19 56 -33 30 -33 55 -53 55 -46 0 7 5 10 10 7 6
-3 10 1 10 9 0 9 -26 47 -57 85 -32 37 -75 98 -97 135 -40 68 -50 77 -60 51z"/>
<path d="M7271 1051 c-37 -10 -44 -55 -37 -231 3 -85 7 -163 8 -172 3 -24 15
-13 21 19 3 16 12 46 20 68 9 26 15 88 16 183 2 78 1 142 -1 141 -2 -1 -14 -4
-27 -8z"/>
<path d="M4170 1010 c0 -26 4 -30 26 -30 22 0 24 3 18 23 -7 21 -21 37 -36 37
-5 0 -8 -13 -8 -30z"/>
<path d="M1860 1020 c0 -12 48 -25 58 -16 8 9 -18 26 -40 26 -10 0 -18 -4 -18
-10z"/>
<path d="M3160 1020 c0 -12 48 -25 58 -16 8 9 -18 26 -40 26 -10 0 -18 -4 -18
-10z"/>
<path d="M3910 1023 c0 -4 5 -15 10 -23 8 -13 10 -13 10 2 0 9 -4 20 -10 23
-5 3 -10 3 -10 -2z"/>
<path d="M7600 1020 c0 -12 48 -25 58 -16 8 9 -18 26 -40 26 -10 0 -18 -4 -18
-10z"/>
<path d="M3892 986 c0 -29 2 -36 9 -24 5 10 5 26 0 40 -7 20 -9 17 -9 -16z"/>
<path d="M2690 965 c-16 -19 -5 -50 37 -96 36 -39 56 -48 68 -28 8 12 -74 91
-86 83 -5 -3 -9 0 -9 5 0 6 5 11 10 11 6 0 10 9 10 20 0 24 -13 26 -30 5z"/>
<path d="M2614 930 c6 -33 89 -140 108 -140 9 0 8 16 -5 65 -6 22 -19 35 -29
29 -7 -4 -8 -2 -4 4 4 7 3 12 -1 12 -5 0 -9 10 -10 21 -2 26 -2 26 -37 35 -29
7 -29 6 -22 -26z"/>
<path d="M6780 950 c0 -5 5 -10 10 -10 6 0 10 5 10 10 0 6 -4 10 -10 10 -5 0
-10 -4 -10 -10z"/>
<path d="M1021 934 c0 -11 3 -14 6 -6 3 7 2 16 -1 19 -3 4 -6 -2 -5 -13z"/>
<path d="M1827 932 c-19 -20 -22 -32 -9 -32 5 0 14 10 21 23 l12 22 -5 -23
c-3 -18 -1 -22 11 -18 8 3 17 6 19 6 2 0 -1 9 -8 20 -16 25 -21 25 -41 2z"/>
<path d="M3127 932 c-19 -20 -22 -32 -9 -32 5 0 14 10 21 23 l12 22 -5 -22
c-2 -14 1 -23 8 -23 20 0 26 11 15 31 -12 24 -22 24 -42 1z"/>
<path d="M7588 927 c-4 -21 -1 -27 13 -27 22 0 24 10 5 35 -12 17 -13 17 -18
-8z"/>
<path d="M1373 925 c-7 -20 0 -27 20 -19 9 3 13 12 10 20 -7 19 -22 18 -30 -1z"/>
<path d="M1547 919 c4 -13 8 -18 11 -10 2 7 -1 18 -6 23 -8 8 -9 4 -5 -13z"/>
<path d="M3875 929 c-4 -6 -5 -12 -2 -15 2 -3 7 2 10 11 7 17 1 20 -8 4z"/>
<path d="M7560 915 c-7 -9 -8 -15 -2 -15 5 0 12 7 16 15 3 8 4 15 2 15 -2 0
-9 -7 -16 -15z"/>
<path d="M3400 911 c0 -6 9 -15 20 -21 13 -7 20 -7 20 -1 0 6 -9 15 -20 21
-13 7 -20 7 -20 1z"/>
<path d="M7854 895 c21 -16 32 -13 21 4 -3 6 -14 11 -23 11 -15 -1 -15 -2 2
-15z"/>
<path d="M1460 890 c0 -6 4 -9 9 -6 5 4 12 1 14 -4 3 -6 4 -5 3 2 -3 15 -26
23 -26 8z"/>
<path d="M6503 865 c0 -8 7 -15 15 -15 12 0 12 3 2 15 -7 8 -13 15 -15 15 -1
0 -2 -7 -2 -15z"/>
<path d="M3401 817 c-13 -21 -12 -21 5 -5 10 10 16 20 13 22 -3 3 -11 -5 -18
-17z"/>
<path d="M4209 746 c24 -24 42 -47 41 -51 -1 -4 2 -10 6 -13 4 -4 3 -1 -1 7
-6 11 -4 13 8 8 11 -4 6 8 -14 36 -17 23 -34 42 -39 42 -5 0 -12 3 -16 8 -4 4
-12 7 -18 7 -5 0 9 -20 33 -44z"/>
<path d="M4160 755 c0 -9 8 -18 18 -22 9 -3 26 -13 37 -22 11 -8 4 1 -14 22
-40 42 -41 43 -41 22z"/>
<path d="M7013 659 c-8 -8 -9 -19 -2 -37 6 -15 7 -37 4 -50 -6 -24 13 -52 35
-52 7 0 9 -7 6 -16 -5 -13 -4 -14 7 -5 12 9 11 21 -5 74 -30 97 -31 100 -45
86z"/>
<path d="M480 646 c0 -2 7 -9 15 -16 9 -7 15 -8 15 -2 0 5 -7 12 -15 16 -8 3
-15 4 -15 2z"/>
<path d="M411 610 l-23 -20 52 0 c52 0 53 0 35 20 -22 25 -34 25 -64 0z"/>
<path d="M6992 610 c0 -14 2 -19 5 -12 2 6 2 18 0 25 -3 6 -5 1 -5 -13z"/>
</g>
</svg>
